HIERARCHY
ROOT root
{
	OFFSET 0.000000 0.000000 0.000000
	CHANNELS 6 Xposition Yposition Zposition Zrotation Yrotation Xrotation
	JOINT lhip
	{
		OFFSET 0.058581 -0.082280 -0.017664
		CHANNELS 3 Zrotation Yrotation Xrotation
		JOINT lknee
		{
			OFFSET 0.043451 -0.386469 0.008037
			CHANNELS 3 Zrotation Yrotation Xrotation
			JOINT lankle
			{
				OFFSET -0.014790 -0.426874 -0.037428
				CHANNELS 3 Zrotation Yrotation Xrotation
				JOINT ltoe
				{
					OFFSET 0.041054 -0.060286 0.122042
					CHANNELS 3 Zrotation Yrotation Xrotation
					End Site
					{
						OFFSET 0.000000 0.000000 0.000000
					}
				}
			}
		}
	}
	JOINT rhip
	{
		OFFSET -0.060310 -0.090513 -0.013543
		CHANNELS 3 Zrotation Yrotation Xrotation
		JOINT rknee
		{
			OFFSET -0.043257 -0.383688 -0.004843
			CHANNELS 3 Zrotation Yrotation Xrotation
			JOINT rankle
			{
				OFFSET 0.019056 -0.420046 -0.034562
				CHANNELS 3 Zrotation Yrotation Xrotation
				JOINT rtoe
				{
					OFFSET -0.034840 -0.062106 0.130323
					CHANNELS 3 Zrotation Yrotation Xrotation
					End Site
					{
						OFFSET 0.000000 0.000000 0.000000
					}
				}
			}
		}
	}
	JOINT lowerback
	{
		OFFSET 0.004439 0.124404 -0.038385
		CHANNELS 3 Zrotation Yrotation Xrotation
		JOINT upperback
		{
			OFFSET 0.004488 0.137956 0.026820
			CHANNELS 3 Zrotation Yrotation Xrotation
			JOINT chest
			{
				OFFSET -0.002265 0.056032 0.002855
				CHANNELS 3 Zrotation Yrotation Xrotation
				JOINT lowerneck
				{
					OFFSET -0.013390 0.211636 -0.033468
					CHANNELS 3 Zrotation Yrotation Xrotation
					JOINT upperneck
					{
						OFFSET 0.010113 0.088937 0.050410
						CHANNELS 3 Zrotation Yrotation Xrotation
						End Site
						{
							OFFSET 0.000000 0.000000 0.000000
						}
					}
				}
				JOINT lclavicle
				{
					OFFSET 0.071702 0.114000 -0.018898
					CHANNELS 3 Zrotation Yrotation Xrotation
					JOINT lshoulder
					{
						OFFSET 0.122921 0.045205 -0.019046
						CHANNELS 3 Zrotation Yrotation Xrotation
						JOINT lelbow
						{
							OFFSET 0.255332 -0.015649 -0.022946
							CHANNELS 3 Zrotation Yrotation Xrotation
							JOINT lwrist
							{
								OFFSET 0.265709 0.012698 -0.007375
								CHANNELS 3 Zrotation Yrotation Xrotation
								End Site
								{
									OFFSET 0.000000 0.000000 0.000000
								}
							}
						}
					}
				}
				JOINT rclavicle
				{
					OFFSET -0.082954 0.112472 -0.023707
					CHANNELS 3 Zrotation Yrotation Xrotation
					JOINT rshoulder
					{
						OFFSET -0.113228 0.046853 -0.008472
						CHANNELS 3 Zrotation Yrotation Xrotation
						JOINT relbow
						{
							OFFSET -0.260127 -0.014369 -0.031269
							CHANNELS 3 Zrotation Yrotation Xrotation
							JOINT rwrist
							{
								OFFSET -0.269108 0.006794 -0.006027
								CHANNELS 3 Zrotation Yrotation Xrotation
								End Site
								{
									OFFSET 0.000000 0.000000 0.000000
								}
							}
						}
					}
				}
			}
		}
	}
}
MOTION
Frames: 7
Frame Time: 0.033333
-0.392504 0.229546 0.991787 93.812192 -0.005208 87.340106 3.124428 0.281365 -3.754278 -4.661253 -8.994007 12.672592 3.436855 5.611045 -9.975190 0.000000 -0.000000 0.000000 -2.655353 -5.296154 -4.111285 1.149571 -0.860368 14.815421 1.374916 -4.388886 -14.967667 0.000000 -0.000000 0.000000 0.664505 1.099261 4.531993 2.505391 -3.966566 -0.530264 -0.368868 -1.357165 2.014534 2.904984 7.475570 23.681304 -0.662463 5.168774 15.717736 -18.028376 7.117115 1.705142 -64.354751 -10.471964 11.648393 0.747630 -22.533406 21.270483 -13.245656 4.374110 -5.243052 16.745846 -3.938289 -0.057055 62.986319 9.106253 11.680871 -4.999249 16.189920 -0.633617 14.387454 1.056282 -15.640463 
-0.392592 0.230005 0.991636 93.640684 -0.082835 87.357937 3.006590 0.268657 -3.671854 -4.725234 -9.171909 12.544449 3.431419 5.918623 -10.040628 0.000000 -0.000000 0.000000 -2.798213 -5.290971 -4.163806 1.253410 -0.605806 14.848308 1.580727 -4.498887 -14.992197 0.000000 -0.000000 0.000000 0.688328 1.063339 4.400942 2.280744 -3.846564 -0.487140 -0.312924 -1.260795 2.062743 2.853256 7.440607 23.879380 -0.655621 5.352290 15.844092 -17.689139 6.903820 2.059913 -64.755148 -10.448059 11.698475 0.863086 -22.469648 21.471199 -13.393980 4.390305 -5.595892 16.660857 -4.158803 0.139751 63.306516 9.288352 11.816989 -4.994272 16.177133 -0.714156 14.331075 1.068260 -15.583734 
-0.393109 0.230629 0.991609 93.568900 -0.068333 87.319520 2.984895 0.287356 -3.682540 -4.739583 -9.052566 12.574341 3.434017 5.920138 -9.937778 0.000000 -0.000000 0.000000 -2.808434 -5.229250 -4.162728 1.213851 -0.590270 14.822154 1.580994 -4.525640 -14.911922 0.000000 -0.000000 0.000000 0.637923 0.979627 4.418420 2.342494 -3.896162 -0.400854 -0.270124 -1.155827 2.084949 2.866216 7.540143 23.964048 -0.741709 5.484924 15.946618 -17.671267 6.901273 2.135968 -64.957063 -10.416369 11.771010 0.944360 -22.435697 21.471437 -13.432440 4.300643 -5.584261 16.746143 -4.115086 0.192792 63.329046 9.349430 11.891518 -5.052186 16.300083 -0.834271 14.329240 1.149527 -15.679223 
-0.394109 0.231690 0.991631 93.482629 -0.084153 87.336609 2.844534 0.170504 -3.830163 -4.665710 -8.906112 12.737304 3.533926 5.988524 -9.965442 0.000000 -0.000000 0.000000 -2.914789 -5.034308 -4.289230 1.255293 -0.646645 14.905723 1.672649 -4.554344 -14.924823 0.000000 -0.000000 0.000000 0.652757 0.984008 4.543573 2.323010 -3.809575 -0.508893 -0.254257 -1.249830 2.231252 2.797483 7.624659 24.080932 -0.821305 5.593210 16.036103 -17.664303 6.877397 2.162552 -65.105408 -10.399506 11.849033 0.939630 -22.470274 21.504095 -13.430976 4.245371 -5.504731 16.830392 -4.143601 0.157957 63.407533 9.373439 12.029536 -5.005880 16.557708 -0.799688 14.284143 1.144902 -15.693373 
-0.394760 0.232349 0.991865 93.470199 -0.057833 87.299823 2.830030 0.105073 -3.821843 -4.706844 -8.882694 12.746877 3.577425 6.037697 -10.014134 0.000000 -0.000000 0.000000 -2.936620 -5.060753 -4.298309 1.270309 -0.621872 14.937646 1.729160 -4.508816 -14.878191 0.000000 -0.000000 0.000000 0.675877 1.050185 4.595093 2.358262 -3.832827 -0.386062 -0.252628 -1.298918 2.308283 2.731182 7.497308 24.067829 -0.883214 5.381757 16.100622 -17.748958 6.844364 2.070015 -65.157966 -10.460890 11.916887 0.931114 -22.461540 21.406987 -13.262782 4.161521 -5.523716 16.848932 -4.142981 0.037480 63.452209 9.420460 12.113078 -4.929584 16.678287 -0.749774 14.189303 1.157107 -15.691715 
-0.395416 0.233242 0.991732 93.529166 -0.041952 87.299778 2.816476 0.137830 -3.905775 -4.764890 -8.836270 12.770301 3.629852 5.937322 -9.920868 0.000000 -0.000000 0.000000 -3.006871 -5.100508 -4.359480 1.285809 -0.682937 14.945807 1.694591 -4.472491 -14.849024 0.000000 -0.000000 0.000000 0.651032 1.099901 4.564605 2.397842 -3.844056 -0.210948 -0.214262 -1.324407 2.388366 2.709302 7.645202 24.064732 -0.907183 5.474428 16.094037 -17.652864 6.726126 2.031241 -65.400116 -10.560431 12.012583 0.978234 -22.509636 21.459426 -13.328113 4.102294 -5.624589 16.855858 -4.144540 0.037756 63.577294 9.572930 12.120519 -5.004755 16.764139 -0.806816 14.251387 1.204602 -15.858377 
-0.396027 0.233823 0.991931 93.404286 0.010695 87.414498 2.830982 0.082794 -4.009746 -4.774004 -8.753599 12.726949 3.645692 5.985710 -9.974171 0.000000 -0.000000 0.000000 -2.939443 -5.222093 -4.547560 1.222113 -0.521194 14.930205 1.717058 -4.377536 -14.769881 0.000000 -0.000000 0.000000 0.615618 1.171650 4.563249 2.443660 -3.883828 -0.186627 -0.162923 -1.265969 2.343109 2.664493 7.686543 24.289839 -0.968203 5.436601 16.174229 -17.620356 6.738384 2.170973 -65.475035 -10.585260 12.038028 1.023985 -22.803788 21.454238 -13.344260 4.092032 -5.726018 16.859457 -3.972340 0.180856 63.721577 9.630326 12.173796 -5.126715 16.766609 -0.804966 14.334906 1.162356 -15.773372 
